# xmcd
#
# Track frame offsets:
#	182
#	11785
#	22792
#	36427
#	52347
#	67992
#	80347
#	93145
#	105325
#	115330
#	126227
#	140635
#	152470
#	166145
#	179960
#	193357
#	205530
#	218725
#	233050
#	243395
#	259170
#	271852
#	286320
#	299870
#	312480
#
# Disc length: 4366
#
# Revision: 3
# Processed by: cddbd v1.5.1PL0 Copyright (c) Steve Scherf et al.
# Submitted via: CDex 1.51
# Normalized: r2:TDELIM( - )
#
DISCID=74110c19
DTITLE=Blues - 25 Hits and Classics - Vol. 2
DYEAR=1900
DGENRE=Blues
TTITLE0=John Lee Hooker - Little Wheel
TTITLE1=Elmore James - Coming Home
TTITLE2=Muddy Waters - Sad Letter
TTITLE3=Sonny Boy Williamson - You Killing Me
TTITLE4=B.B. King - How Blue Can You Get
TTITLE5=Jimmy Reed - Little Rain
TTITLE6=Billie Holiday - Don't Explain
TTITLE7=Roy Milton - Early In The Morning
TTITLE8=John Lee Hooker - Dimples
TTITLE9=Howlin' Wolf - Wang-Dang-Doodle
TTITLE10=Little Walter - Sad Hours
TTITLE11=Muddy Waters - You're Gonna Miss Me
TTITLE12=Leadbelly - The Gallis Pole
TTITLE13=Sonny Boy Williamson - Don't Lose Your Eye
TTITLE14=Howlin' Wolf - Tell Me
TTITLE15=John Lee Hooker - I'm In The Mood
TTITLE16=Little Walter - Mean Old World
TTITLE17=Ray Charles - Walkin' And Talkin'
TTITLE18=Howlin' Wolf - Shake For Me
TTITLE19=Billie Holiday - Easy To Remember
TTITLE20=John Lee Hooker - Trouble Blues
TTITLE21=Leadbelly - Poor Howard Is Dead And Gone
TTITLE22=Howlin' Wolf - My Baby Walked Off
TTITLE23=Muddy Waters - Trainfare Blues
TTITLE24=Billie Holiday - Loveless Love
EXTD=
EXTT0=
EXTT1=
EXTT2=
EXTT3=
EXTT4=
EXTT5=
EXTT6=
EXTT7=
EXTT8=
EXTT9=
EXTT10=
EXTT11=
EXTT12=
EXTT13=
EXTT14=
EXTT15=
EXTT16=
EXTT17=
EXTT18=
EXTT19=
EXTT20=
EXTT21=
EXTT22=
EXTT23=
EXTT24=
PLAYORDER=
